999
DXF data, created by potrace 1.12, written by Peter Selinger 2001-2015
  0
SECTION
  2
HEADER
  9
$ACADVER
  1
AC1006
  9
$EXTMIN
 10
0.000000
 20
0.000000
 30
0.000000
  9
$EXTMAX
 10
2000.000000
 20
326.000000
 30
0.000000
  0
ENDSEC
  0
SECTION
  2
ENTITIES
  0
POLYLINE
  8
0
 66
1
 70
1
  0
VERTEX
  8
0
 10
0.000000
 20
163.000000
 42
0.000000
  0
VERTEX
  8
0
 10
0.000000
 20
0.000000
 42
0.000000
  0
VERTEX
  8
0
 10
1000.000000
 20
0.000000
 42
0.000000
  0
VERTEX
  8
0
 10
2000.000000
 20
0.000000
 42
0.000000
  0
VERTEX
  8
0
 10
2000.000000
 20
163.000000
 42
0.000000
  0
VERTEX
  8
0
 10
2000.000000
 20
326.000000
 42
0.000000
  0
VERTEX
  8
0
 10
1000.000000
 20
326.000000
 42
0.000000
  0
VERTEX
  8
0
 10
0.000000
 20
326.000000
 42
0.000000
  0
SEQEND
  0
POLYLINE
  8
0
 66
1
 70
1
  0
VERTEX
  8
0
 10
1326.397544
 20
273.634090
 42
0.026894
  0
VERTEX
  8
0
 10
1328.104959
 20
272.604904
 42
0.012837
  0
VERTEX
  8
0
 10
1330.398961
 20
271.459729
 42
0.012685
  0
VERTEX
  8
0
 10
1332.862586
 20
270.383184
 42
0.017624
  0
VERTEX
  8
0
 10
1335.123645
 20
269.554349
 42
0.015270
  0
VERTEX
  8
0
 10
1338.355535
 20
268.605456
 42
0.062838
  0
VERTEX
  8
0
 10
1340.374371
 20
268.342484
 42
0.062370
  0
VERTEX
  8
0
 10
1342.402545
 20
268.588191
 42
0.014902
  0
VERTEX
  8
0
 10
1345.677223
 20
269.511926
 42
0.018443
  0
VERTEX
  8
0
 10
1347.971209
 20
270.327586
 42
0.013226
  0
VERTEX
  8
0
 10
1350.472605
 20
271.399805
 42
0.013385
  0
VERTEX
  8
0
 10
1352.803022
 20
272.549118
 42
0.027829
  0
VERTEX
  8
0
 10
1354.539941
 20
273.591667
 42
-0.048309
  0
VERTEX
  8
0
 10
1356.998696
 20
274.933898
 42
-0.063532
  0
VERTEX
  8
0
 10
1359.455591
 20
275.630431
 42
-0.032816
  0
VERTEX
  8
0
 10
1363.048042
 20
275.932003
 42
-0.004535
  0
VERTEX
  8
0
 10
1370.544409
 20
276.000000
 42
0.000000
  0
VERTEX
  8
0
 10
1383.000000
 20
276.000000
 42
0.000000
  0
VERTEX
  8
0
 10
1383.000000
 20
266.152600
 42
0.000000
  0
VERTEX
  8
0
 10
1383.000000
 20
256.305201
 42
0.000000
  0
VERTEX
  8
0
 10
1376.579322
 20
248.780206
 42
-0.030316
  0
VERTEX
  8
0
 10
1369.883341
 20
241.833041
 42
-0.094103
  0
VERTEX
  8
0
 10
1364.377854
 20
238.415480
 42
-0.073150
  0
VERTEX
  8
0
 10
1357.253261
 20
236.808452
 42
-0.013633
  0
VERTEX
  8
0
 10
1343.826752
 20
236.156179
 42
-0.015504
  0
VERTEX
  8
0
 10
1327.411834
 20
236.315867
 42
-0.070947
  0
VERTEX
  8
0
 10
1318.059259
 20
238.040854
 42
-0.096710
  0
VERTEX
  8
0
 10
1311.026818
 20
242.038159
 42
-0.042876
  0
VERTEX
  8
0
 10
1303.522659
 20
249.693764
 42
0.000000
  0
VERTEX
  8
0
 10
1298.000000
 20
256.389141
 42
0.000000
  0
VERTEX
  8
0
 10
1298.000000
 20
266.194571
 42
0.000000
  0
VERTEX
  8
0
 10
1298.000000
 20
276.000000
 42
0.000000
  0
VERTEX
  8
0
 10
1310.455591
 20
276.000000
 42
-0.004565
  0
VERTEX
  8
0
 10
1317.910281
 20
275.931937
 42
-0.032279
  0
VERTEX
  8
0
 10
1321.518120
 20
275.632537
 42
-0.062512
  0
VERTEX
  8
0
 10
1323.975841
 20
274.946536
 42
-0.049835
  0
SEQEND
  0
POLYLINE
  8
0
 66
1
 70
1
  0
VERTEX
  8
0
 10
98.000000
 20
190.000000
 42
0.000000
  0
VERTEX
  8
0
 10
98.000000
 20
152.000000
 42
0.000000
  0
VERTEX
  8
0
 10
115.000000
 20
152.000000
 42
0.000000
  0
VERTEX
  8
0
 10
132.000000
 20
152.000000
 42
0.000000
  0
VERTEX
  8
0
 10
132.000000
 20
190.000000
 42
0.000000
  0
VERTEX
  8
0
 10
132.000000
 20
228.000000
 42
0.000000
  0
VERTEX
  8
0
 10
157.000000
 20
228.000000
 42
0.000000
  0
VERTEX
  8
0
 10
182.000000
 20
228.000000
 42
0.000000
  0
VERTEX
  8
0
 10
182.000000
 20
148.000000
 42
0.000000
  0
VERTEX
  8
0
 10
182.000000
 20
68.000000
 42
0.000000
  0
VERTEX
  8
0
 10
157.000000
 20
68.000000
 42
0.000000
  0
VERTEX
  8
0
 10
132.000000
 20
68.000000
 42
0.000000
  0
VERTEX
  8
0
 10
132.000000
 20
87.000000
 42
0.000000
  0
VERTEX
  8
0
 10
132.000000
 20
106.000000
 42
0.000000
  0
VERTEX
  8
0
 10
115.000000
 20
106.000000
 42
0.000000
  0
VERTEX
  8
0
 10
98.000000
 20
106.000000
 42
0.000000
  0
VERTEX
  8
0
 10
98.000000
 20
87.000000
 42
0.000000
  0
VERTEX
  8
0
 10
98.000000
 20
68.000000
 42
0.000000
  0
VERTEX
  8
0
 10
76.000000
 20
68.000000
 42
0.000000
  0
VERTEX
  8
0
 10
54.000000
 20
68.000000
 42
0.000000
  0
VERTEX
  8
0
 10
54.000000
 20
148.000000
 42
0.000000
  0
VERTEX
  8
0
 10
54.000000
 20
228.000000
 42
0.000000
  0
VERTEX
  8
0
 10
76.000000
 20
228.000000
 42
0.000000
  0
VERTEX
  8
0
 10
98.000000
 20
228.000000
 42
0.000000
  0
SEQEND
  0
POLYLINE
  8
0
 66
1
 70
1
  0
VERTEX
  8
0
 10
298.405947
 20
226.250000
 42
-0.001703
  0
VERTEX
  8
0
 10
298.832869
 20
224.851431
 42
-0.000003
  0
VERTEX
  8
0
 10
305.559748
 20
202.542187
 42
-0.000024
  0
VERTEX
  8
0
 10
313.123105
 20
177.453827
 42
-0.000015
  0
VERTEX
  8
0
 10
322.000000
 20
148.000000
 42
0.000015
  0
VERTEX
  8
0
 10
330.876895
 20
118.546173
 42
0.000024
  0
VERTEX
  8
0
 10
338.440252
 20
93.457813
 42
0.000003
  0
VERTEX
  8
0
 10
345.167131
 20
71.148569
 42
0.001703
  0
VERTEX
  8
0
 10
345.594053
 20
69.750000
 42
-0.393802
  0
VERTEX
  8
0
 10
345.119505
 20
68.769178
 42
-0.070717
  0
VERTEX
  8
0
 10
342.952157
 20
68.264750
 42
-0.020242
  0
VERTEX
  8
0
 10
338.191803
 20
68.040886
 42
-0.001628
  0
VERTEX
  8
0
 10
325.638346
 20
68.000000
 42
0.000000
  0
VERTEX
  8
0
 10
305.141917
 20
68.000000
 42
0.000000
  0
VERTEX
  8
0
 10
303.570958
 20
73.500000
 42
0.042553
  0
VERTEX
  8
0
 10
302.855812
 20
76.003763
 42
0.105263
  0
VERTEX
  8
0
 10
302.000000
 20
79.000000
 42
-0.105263
  0
VERTEX
  8
0
 10
301.144188
 20
81.996237
 42
-0.000000
  0
VERTEX
  8
0
 10
300.429042
 20
84.500000
 42
0.000000
  0
VERTEX
  8
0
 10
298.858083
 20
90.000000
 42
0.000000
  0
VERTEX
  8
0
 10
270.000000
 20
90.000000
 42
0.000000
  0
VERTEX
  8
0
 10
241.141917
 20
90.000000
 42
0.000000
  0
VERTEX
  8
0
 10
239.570958
 20
84.500000
 42
-0.000000
  0
VERTEX
  8
0
 10
238.855812
 20
81.996237
 42
-0.105263
  0
VERTEX
  8
0
 10
238.000000
 20
79.000000
 42
0.105263
  0
VERTEX
  8
0
 10
237.144188
 20
76.003763
 42
0.000000
  0
VERTEX
  8
0
 10
236.429042
 20
73.500000
 42
0.000000
  0
VERTEX
  8
0
 10
234.858083
 20
68.000000
 42
0.000000
  0
VERTEX
  8
0
 10
214.361654
 20
68.000000
 42
-0.001628
  0
VERTEX
  8
0
 10
201.808197
 20
68.040886
 42
-0.020242
  0
VERTEX
  8
0
 10
197.047843
 20
68.264750
 42
-0.070717
  0
VERTEX
  8
0
 10
194.880495
 20
68.769178
 42
-0.393802
  0
VERTEX
  8
0
 10
194.405947
 20
69.750000
 42
0.001703
  0
VERTEX
  8
0
 10
194.832869
 20
71.148569
 42
0.000003
  0
VERTEX
  8
0
 10
201.559748
 20
93.457813
 42
0.000024
  0
VERTEX
  8
0
 10
209.123105
 20
118.546173
 42
0.000015
  0
VERTEX
  8
0
 10
218.000000
 20
148.000000
 42
-0.000015
  0
VERTEX
  8
0
 10
226.876895
 20
177.453827
 42
-0.000024
  0
VERTEX
  8
0
 10
234.440252
 20
202.542187
 42
-0.000003
  0
VERTEX
  8
0
 10
241.167131
 20
224.851431
 42
-0.001703
  0
VERTEX
  8
0
 10
241.594053
 20
226.250000
 42
-0.277812
  0
VERTEX
  8
0
 10
242.744185
 20
227.277535
 42
-0.031429
  0
VERTEX
  8
0
 10
246.359172
 20
227.729448
 42
-0.014084
  0
VERTEX
  8
0
 10
253.154243
 20
227.956234
 42
-0.001299
  0
VERTEX
  8
0
 10
270.000000
 20
228.000000
 42
-0.001299
  0
VERTEX
  8
0
 10
286.845757
 20
227.956234
 42
-0.014084
  0
VERTEX
  8
0
 10
293.640828
 20
227.729448
 42
-0.031429
  0
VERTEX
  8
0
 10
297.255815
 20
227.277535
 42
-0.277812
  0
SEQEND
  0
POLYLINE
  8
0
 66
1
 70
1
  0
VERTEX
  8
0
 10
443.068499
 20
226.454916
 42
-0.029997
  0
VERTEX
  8
0
 10
451.395170
 20
223.536399
 42
-0.065840
  0
VERTEX
  8
0
 10
457.213533
 20
220.138346
 42
-0.070839
  0
VERTEX
  8
0
 10
461.688003
 20
215.517218
 42
-0.039662
  0
VERTEX
  8
0
 10
465.774995
 20
208.829440
 42
0.000000
  0
VERTEX
  8
0
 10
470.000000
 20
200.496867
 42
0.000000
  0
VERTEX
  8
0
 10
470.000000
 20
184.233285
 42
0.000000
  0
VERTEX
  8
0
 10
470.000000
 20
167.969703
 42
0.000000
  0
VERTEX
  8
0
 10
466.904559
 20
162.484883
 42
-0.007540
  0
VERTEX
  8
0
 10
465.652976
 20
160.343304
 42
-0.010170
  0
VERTEX
  8
0
 10
464.452690
 20
158.447008
 42
-0.007507
  0
VERTEX
  8
0
 10
463.399822
 20
156.906906
 42
-0.100979
  0
VERTEX
  8
0
 10
462.904559
 20
156.441014
 42
0.236049
  0
VERTEX
  8
0
 10
461.964179
 20
154.919566
 42
0.051730
  0
VERTEX
  8
0
 10
462.006553
 20
151.750686
 42
0.051864
  0
VERTEX
  8
0
 10
462.740943
 20
148.472333
 42
0.128506
  0
VERTEX
  8
0
 10
464.078718
 20
146.428761
 42
-0.076716
  0
VERTEX
  8
0
 10
465.906491
 20
144.178204
 42
-0.015575
  0
VERTEX
  8
0
 10
468.368611
 20
139.647912
 42
-0.014744
  0
VERTEX
  8
0
 10
471.120186
 20
133.760320
 42
-0.009189
  0
VERTEX
  8
0
 10
474.011943
 20
126.711828
 42
-0.056736
  0
VERTEX
  8
0
 10
475.527743
 20
120.958184
 42
-0.045312
  0
VERTEX
  8
0
 10
475.872140
 20
114.549321
 42
-0.046003
  0
VERTEX
  8
0
 10
475.063075
 20
108.303300
 42
-0.065024
  0
VERTEX
  8
0
 10
473.138700
 20
103.041598
 42
0.011271
  0
VERTEX
  8
0
 10
472.319839
 20
101.380263
 42
0.013548
  0
VERTEX
  8
0
 10
471.628243
 20
99.781660
 42
0.012260
  0
VERTEX
  8
0
 10
471.118797
 20
98.414527
 42
0.083236
  0
VERTEX
  8
0
 10
471.000000
 20
97.705858
 42
-0.165904
  0
VERTEX
  8
0
 10
469.492734
 20
93.288307
 42
-0.015888
  0
VERTEX
  8
0
 10
462.153559
 20
84.385068
 42
-0.020897
  0
VERTEX
  8
0
 10
454.012415
 20
75.870123
 42
-0.061669
  0
VERTEX
  8
0
 10
447.543717
 20
71.025012
 42
0.000000
  0
VERTEX
  8
0
 10
442.256547
 20
68.000000
 42
0.000000
  0
VERTEX
  8
0
 10
399.128273
 20
68.000000
 42
0.000000
  0
VERTEX
  8
0
 10
356.000000
 20
68.000000
 42
0.000000
  0
VERTEX
  8
0
 10
356.000000
 20
148.000000
 42
0.000000
  0
VERTEX
  8
0
 10
356.000000
 20
228.000000
 42
0.000000
  0
VERTEX
  8
0
 10
396.818499
 20
228.000000
 42
-0.001332
  0
VERTEX
  8
0
 10
418.845137
 20
227.941327
 42
-0.007017
  0
VERTEX
  8
0
 10
430.932629
 20
227.707271
 42
-0.011819
  0
VERTEX
  8
0
 10
438.547405
 20
227.272515
 42
-0.049159
  0
SEQEND
  0
POLYLINE
  8
0
 66
1
 70
1
  0
VERTEX
  8
0
 10
582.405947
 20
226.250000
 42
-0.001703
  0
VERTEX
  8
0
 10
582.832869
 20
224.851431
 42
-0.000003
  0
VERTEX
  8
0
 10
589.559748
 20
202.542187
 42
-0.000024
  0
VERTEX
  8
0
 10
597.123105
 20
177.453827
 42
-0.000015
  0
VERTEX
  8
0
 10
606.000000
 20
148.000000
 42
0.000015
  0
VERTEX
  8
0
 10
614.876895
 20
118.546173
 42
0.000024
  0
VERTEX
  8
0
 10
622.440252
 20
93.457813
 42
0.000003
  0
VERTEX
  8
0
 10
629.167131
 20
71.148569
 42
0.001703
  0
VERTEX
  8
0
 10
629.594053
 20
69.750000
 42
-0.393802
  0
VERTEX
  8
0
 10
629.119505
 20
68.769178
 42
-0.070717
  0
VERTEX
  8
0
 10
626.952157
 20
68.264750
 42
-0.020242
  0
VERTEX
  8
0
 10
622.191803
 20
68.040886
 42
-0.001628
  0
VERTEX
  8
0
 10
609.638346
 20
68.000000
 42
0.000000
  0
VERTEX
  8
0
 10
589.141917
 20
68.000000
 42
0.000000
  0
VERTEX
  8
0
 10
587.570958
 20
73.500000
 42
0.042553
  0
VERTEX
  8
0
 10
586.855812
 20
76.003763
 42
0.105263
  0
VERTEX
  8
0
 10
586.000000
 20
79.000000
 42
-0.105263
  0
VERTEX
  8
0
 10
585.144188
 20
81.996237
 42
-0.000000
  0
VERTEX
  8
0
 10
584.429042
 20
84.500000
 42
0.000000
  0
VERTEX
  8
0
 10
582.858083
 20
90.000000
 42
0.000000
  0
VERTEX
  8
0
 10
554.000000
 20
90.000000
 42
0.000000
  0
VERTEX
  8
0
 10
525.141917
 20
90.000000
 42
0.000000
  0
VERTEX
  8
0
 10
523.570958
 20
84.500000
 42
-0.042553
  0
VERTEX
  8
0
 10
522.855812
 20
81.996237
 42
-0.105263
  0
VERTEX
  8
0
 10
522.000000
 20
79.000000
 42
0.105263
  0
VERTEX
  8
0
 10
521.144188
 20
76.003763
 42
0.000000
  0
VERTEX
  8
0
 10
520.429042
 20
73.500000
 42
0.000000
  0
VERTEX
  8
0
 10
518.858083
 20
68.000000
 42
0.000000
  0
VERTEX
  8
0
 10
498.361654
 20
68.000000
 42
-0.001628
  0
VERTEX
  8
0
 10
485.808197
 20
68.040886
 42
-0.020242
  0
VERTEX
  8
0
 10
481.047843
 20
68.264750
 42
-0.070717
  0
VERTEX
  8
0
 10
478.880495
 20
68.769178
 42
-0.393802
  0
VERTEX
  8
0
 10
478.405947
 20
69.750000
 42
0.001703
  0
VERTEX
  8
0
 10
478.832869
 20
71.148569
 42
0.000003
  0
VERTEX
  8
0
 10
485.559748
 20
93.457813
 42
0.000024
  0
VERTEX
  8
0
 10
493.123105
 20
118.546173
 42
0.000015
  0
VERTEX
  8
0
 10
502.000000
 20
148.000000
 42
-0.000015
  0
VERTEX
  8
0
 10
510.876895
 20
177.453827
 42
-0.000024
  0
VERTEX
  8
0
 10
518.440252
 20
202.542187
 42
-0.000003
  0
VERTEX
  8
0
 10
525.167131
 20
224.851431
 42
-0.001703
  0
VERTEX
  8
0
 10
525.594053
 20
226.250000
 42
-0.277812
  0
VERTEX
  8
0
 10
526.744185
 20
227.277535
 42
-0.031429
  0
VERTEX
  8
0
 10
530.359172
 20
227.729448
 42
-0.014084
  0
VERTEX
  8
0
 10
537.154243
 20
227.956234
 42
-0.001299
  0
VERTEX
  8
0
 10
554.000000
 20
228.000000
 42
-0.001299
  0
VERTEX
  8
0
 10
570.845757
 20
227.956234
 42
-0.014084
  0
VERTEX
  8
0
 10
577.640828
 20
227.729448
 42
-0.031429
  0
VERTEX
  8
0
 10
581.255815
 20
227.277535
 42
-0.277812
  0
SEQEND
  0
POLYLINE
  8
0
 66
1
 70
1
  0
VERTEX
  8
0
 10
774.000000
 20
148.000000
 42
0.000000
  0
VERTEX
  8
0
 10
774.000000
 20
68.000000
 42
0.000000
  0
VERTEX
  8
0
 10
753.000000
 20
68.000000
 42
0.000000
  0
VERTEX
  8
0
 10
732.000000
 20
68.000000
 42
0.000000
  0
VERTEX
  8
0
 10
732.000000
 20
127.000000
 42
0.000000
  0
VERTEX
  8
0
 10
732.000000
 20
186.000000
 42
0.000000
  0
VERTEX
  8
0
 10
717.032884
 20
186.000000
 42
0.000000
  0
VERTEX
  8
0
 10
702.065769
 20
186.000000
 42
0.000000
  0
VERTEX
  8
0
 10
701.782884
 20
146.250000
 42
0.000000
  0
VERTEX
  8
0
 10
701.500000
 20
106.500000
 42
0.000000
  0
VERTEX
  8
0
 10
697.674395
 20
98.604958
 42
-0.018772
  0
VERTEX
  8
0
 10
694.280277
 20
92.222555
 42
-0.020654
  0
VERTEX
  8
0
 10
690.516035
 20
86.318665
 42
-0.022274
  0
VERTEX
  8
0
 10
686.697383
 20
81.331205
 42
-0.043354
  0
VERTEX
  8
0
 10
683.157828
 20
77.786257
 42
-0.038760
  0
VERTEX
  8
0
 10
681.482091
 20
76.584803
 42
-0.011279
  0
VERTEX
  8
0
 10
678.726724
 20
74.999905
 42
-0.011264
  0
VERTEX
  8
0
 10
675.532298
 20
73.349400
 42
-0.011825
  0
VERTEX
  8
0
 10
672.317642
 20
71.872249
 42
-0.016578
  0
VERTEX
  8
0
 10
667.220070
 20
69.872011
 42
-0.045586
  0
VERTEX
  8
0
 10
663.480587
 20
68.918488
 42
-0.030201
  0
VERTEX
  8
0
 10
658.861700
 20
68.463566
 42
-0.004186
  0
VERTEX
  8
0
 10
649.227168
 20
68.180046
 42
0.000000
  0
VERTEX
  8
0
 10
633.954336
 20
67.858549
 42
0.000000
  0
VERTEX
  8
0
 10
634.227168
 20
86.167716
 42
0.000000
  0
VERTEX
  8
0
 10
634.500000
 20
104.476883
 42
0.000000
  0
VERTEX
  8
0
 10
639.436149
 20
105.182171
 42
0.044542
  0
VERTEX
  8
0
 10
643.352368
 20
106.103041
 42
0.065305
  0
VERTEX
  8
0
 10
646.534265
 20
107.641633
 42
0.057427
  0
VERTEX
  8
0
 10
649.489516
 20
110.108415
 42
0.026492
  0
VERTEX
  8
0
 10
652.750000
 20
113.920649
 42
0.000000
  0
VERTEX
  8
0
 10
656.000000
 20
118.155479
 42
0.000000
  0
VERTEX
  8
0
 10
656.000000
 20
173.077739
 42
0.000000
  0
VERTEX
  8
0
 10
656.000000
 20
228.000000
 42
0.000000
  0
VERTEX
  8
0
 10
715.000000
 20
228.000000
 42
0.000000
  0
VERTEX
  8
0
 10
774.000000
 20
228.000000
 42
0.000000
  0
SEQEND
  0
POLYLINE
  8
0
 66
1
 70
1
  0
VERTEX
  8
0
 10
838.000000
 20
205.059426
 42
0.000000
  0
VERTEX
  8
0
 10
838.000000
 20
182.118852
 42
0.000000
  0
VERTEX
  8
0
 10
857.250000
 20
181.809426
 42
0.000000
  0
VERTEX
  8
0
 10
876.500000
 20
181.500000
 42
0.000000
  0
VERTEX
  8
0
 10
884.317642
 20
178.128523
 42
-0.011821
  0
VERTEX
  8
0
 10
887.532298
 20
176.651077
 42
-0.011260
  0
VERTEX
  8
0
 10
890.726724
 20
175.000322
 42
-0.011275
  0
VERTEX
  8
0
 10
893.482096
 20
173.415246
 42
-0.038750
  0
VERTEX
  8
0
 10
895.157828
 20
172.213743
 42
-0.043354
  0
VERTEX
  8
0
 10
898.697383
 20
168.668795
 42
-0.022274
  0
VERTEX
  8
0
 10
902.516035
 20
163.681335
 42
-0.020654
  0
VERTEX
  8
0
 10
906.280277
 20
157.777445
 42
-0.018772
  0
VERTEX
  8
0
 10
909.674395
 20
151.395042
 42
0.000000
  0
VERTEX
  8
0
 10
913.500000
 20
143.500000
 42
0.000000
  0
VERTEX
  8
0
 10
913.500000
 20
125.000000
 42
0.000000
  0
VERTEX
  8
0
 10
913.500000
 20
106.500000
 42
0.000000
  0
VERTEX
  8
0
 10
909.674395
 20
98.604958
 42
-0.018772
  0
VERTEX
  8
0
 10
906.280277
 20
92.222555
 42
-0.020654
  0
VERTEX
  8
0
 10
902.516035
 20
86.318665
 42
-0.022274
  0
VERTEX
  8
0
 10
898.697383
 20
81.331205
 42
-0.043354
  0
VERTEX
  8
0
 10
895.157828
 20
77.786257
 42
-0.038750
  0
VERTEX
  8
0
 10
893.482096
 20
76.584754
 42
-0.011275
  0
VERTEX
  8
0
 10
890.726724
 20
74.999678
 42
-0.011260
  0
VERTEX
  8
0
 10
887.532298
 20
73.348923
 42
-0.011821
  0
VERTEX
  8
0
 10
884.317642
 20
71.871477
 42
0.000000
  0
VERTEX
  8
0
 10
876.500000
 20
68.500000
 42
0.000000
  0
VERTEX
  8
0
 10
835.250000
 20
68.218160
 42
0.000000
  0
VERTEX
  8
0
 10
794.000000
 20
67.936320
 42
0.000000
  0
VERTEX
  8
0
 10
794.000000
 20
147.968160
 42
0.000000
  0
VERTEX
  8
0
 10
794.000000
 20
228.000000
 42
0.000000
  0
VERTEX
  8
0
 10
816.000000
 20
228.000000
 42
0.000000
  0
VERTEX
  8
0
 10
838.000000
 20
228.000000
 42
0.000000
  0
SEQEND
  0
POLYLINE
  8
0
 66
1
 70
1
  0
VERTEX
  8
0
 10
976.000000
 20
190.000000
 42
0.000000
  0
VERTEX
  8
0
 10
976.000000
 20
152.000000
 42
0.000000
  0
VERTEX
  8
0
 10
993.000000
 20
152.000000
 42
0.000000
  0
VERTEX
  8
0
 10
1010.000000
 20
152.000000
 42
0.000000
  0
VERTEX
  8
0
 10
1010.000000
 20
190.000000
 42
0.000000
  0
VERTEX
  8
0
 10
1010.000000
 20
228.000000
 42
0.000000
  0
VERTEX
  8
0
 10
1034.000000
 20
228.000000
 42
0.000000
  0
VERTEX
  8
0
 10
1058.000000
 20
228.000000
 42
0.000000
  0
VERTEX
  8
0
 10
1058.000000
 20
148.000000
 42
0.000000
  0
VERTEX
  8
0
 10
1058.000000
 20
68.000000
 42
0.000000
  0
VERTEX
  8
0
 10
1034.000000
 20
68.000000
 42
0.000000
  0
VERTEX
  8
0
 10
1010.000000
 20
68.000000
 42
0.000000
  0
VERTEX
  8
0
 10
1010.000000
 20
87.000000
 42
0.000000
  0
VERTEX
  8
0
 10
1010.000000
 20
106.000000
 42
0.000000
  0
VERTEX
  8
0
 10
993.000000
 20
106.000000
 42
0.000000
  0
VERTEX
  8
0
 10
976.000000
 20
106.000000
 42
0.000000
  0
VERTEX
  8
0
 10
976.000000
 20
87.000000
 42
0.000000
  0
VERTEX
  8
0
 10
976.000000
 20
68.000000
 42
0.000000
  0
VERTEX
  8
0
 10
953.000000
 20
68.000000
 42
0.000000
  0
VERTEX
  8
0
 10
930.000000
 20
68.000000
 42
0.000000
  0
VERTEX
  8
0
 10
930.000000
 20
148.000000
 42
0.000000
  0
VERTEX
  8
0
 10
930.000000
 20
228.000000
 42
0.000000
  0
VERTEX
  8
0
 10
953.000000
 20
228.000000
 42
0.000000
  0
VERTEX
  8
0
 10
976.000000
 20
228.000000
 42
0.000000
  0
SEQEND
  0
POLYLINE
  8
0
 66
1
 70
1
  0
VERTEX
  8
0
 10
1124.000000
 20
205.059426
 42
0.000000
  0
VERTEX
  8
0
 10
1124.000000
 20
182.118852
 42
0.000000
  0
VERTEX
  8
0
 10
1143.250000
 20
181.809426
 42
0.000000
  0
VERTEX
  8
0
 10
1162.500000
 20
181.500000
 42
0.000000
  0
VERTEX
  8
0
 10
1170.317642
 20
178.128523
 42
-0.011821
  0
VERTEX
  8
0
 10
1173.532298
 20
176.651077
 42
-0.011260
  0
VERTEX
  8
0
 10
1176.726724
 20
175.000322
 42
-0.011275
  0
VERTEX
  8
0
 10
1179.482096
 20
173.415246
 42
-0.038750
  0
VERTEX
  8
0
 10
1181.157828
 20
172.213743
 42
-0.043354
  0
VERTEX
  8
0
 10
1184.697383
 20
168.668795
 42
-0.022274
  0
VERTEX
  8
0
 10
1188.516035
 20
163.681335
 42
-0.020654
  0
VERTEX
  8
0
 10
1192.280277
 20
157.777445
 42
-0.018772
  0
VERTEX
  8
0
 10
1195.674395
 20
151.395042
 42
0.000000
  0
VERTEX
  8
0
 10
1199.500000
 20
143.500000
 42
0.000000
  0
VERTEX
  8
0
 10
1199.500000
 20
125.000000
 42
0.000000
  0
VERTEX
  8
0
 10
1199.500000
 20
106.500000
 42
0.000000
  0
VERTEX
  8
0
 10
1195.674395
 20
98.604958
 42
-0.018772
  0
VERTEX
  8
0
 10
1192.280277
 20
92.222555
 42
-0.020654
  0
VERTEX
  8
0
 10
1188.516035
 20
86.318665
 42
-0.022274
  0
VERTEX
  8
0
 10
1184.697383
 20
81.331205
 42
-0.043354
  0
VERTEX
  8
0
 10
1181.157828
 20
77.786257
 42
-0.038750
  0
VERTEX
  8
0
 10
1179.482096
 20
76.584754
 42
-0.011275
  0
VERTEX
  8
0
 10
1176.726724
 20
74.999678
 42
-0.011260
  0
VERTEX
  8
0
 10
1173.532298
 20
73.348923
 42
-0.011821
  0
VERTEX
  8
0
 10
1170.317642
 20
71.871477
 42
0.000000
  0
VERTEX
  8
0
 10
1162.500000
 20
68.500000
 42
0.000000
  0
VERTEX
  8
0
 10
1120.250000
 20
68.218820
 42
0.000000
  0
VERTEX
  8
0
 10
1078.000000
 20
67.937640
 42
0.000000
  0
VERTEX
  8
0
 10
1078.000000
 20
147.968820
 42
0.000000
  0
VERTEX
  8
0
 10
1078.000000
 20
228.000000
 42
0.000000
  0
VERTEX
  8
0
 10
1101.000000
 20
228.000000
 42
0.000000
  0
VERTEX
  8
0
 10
1124.000000
 20
228.000000
 42
0.000000
  0
SEQEND
  0
POLYLINE
  8
0
 66
1
 70
1
  0
VERTEX
  8
0
 10
1252.000000
 20
148.000000
 42
0.000000
  0
VERTEX
  8
0
 10
1252.000000
 20
68.000000
 42
0.000000
  0
VERTEX
  8
0
 10
1229.000000
 20
68.000000
 42
0.000000
  0
VERTEX
  8
0
 10
1206.000000
 20
68.000000
 42
0.000000
  0
VERTEX
  8
0
 10
1206.000000
 20
148.000000
 42
0.000000
  0
VERTEX
  8
0
 10
1206.000000
 20
228.000000
 42
0.000000
  0
VERTEX
  8
0
 10
1229.000000
 20
228.000000
 42
0.000000
  0
VERTEX
  8
0
 10
1252.000000
 20
228.000000
 42
0.000000
  0
SEQEND
  0
POLYLINE
  8
0
 66
1
 70
1
  0
VERTEX
  8
0
 10
1316.237526
 20
191.982186
 42
0.000000
  0
VERTEX
  8
0
 10
1316.500000
 20
155.964371
 42
0.000000
  0
VERTEX
  8
0
 10
1343.487145
 20
191.982186
 42
0.000000
  0
VERTEX
  8
0
 10
1370.474290
 20
228.000000
 42
0.000000
  0
VERTEX
  8
0
 10
1387.237145
 20
228.000000
 42
0.000000
  0
VERTEX
  8
0
 10
1404.000000
 20
228.000000
 42
0.000000
  0
VERTEX
  8
0
 10
1404.000000
 20
148.000000
 42
0.000000
  0
VERTEX
  8
0
 10
1404.000000
 20
68.000000
 42
0.000000
  0
VERTEX
  8
0
 10
1381.000000
 20
68.000000
 42
0.000000
  0
VERTEX
  8
0
 10
1358.000000
 20
68.000000
 42
0.000000
  0
VERTEX
  8
0
 10
1358.000000
 20
102.000000
 42
0.001821
  0
VERTEX
  8
0
 10
1357.895348
 20
130.742408
 42
0.127864
  0
VERTEX
  8
0
 10
1356.664167
 20
135.340363
 42
0.548385
  0
VERTEX
  8
0
 10
1354.259939
 20
135.464566
 42
0.010799
  0
VERTEX
  8
0
 10
1345.946313
 20
123.250000
 42
-0.001734
  0
VERTEX
  8
0
 10
1342.439846
 20
117.891918
 42
-0.001536
  0
VERTEX
  8
0
 10
1338.751752
 20
112.335938
 42
-0.001541
  0
VERTEX
  8
0
 10
1335.399331
 20
107.352466
 42
-0.004710
  0
VERTEX
  8
0
 10
1333.082701
 20
104.000000
 42
0.001107
  0
VERTEX
  8
0
 10
1331.254756
 20
101.395062
 42
0.001341
  0
VERTEX
  8
0
 10
1329.552419
 20
98.943689
 42
0.001132
  0
VERTEX
  8
0
 10
1328.129890
 20
96.873458
 42
0.009256
  0
VERTEX
  8
0
 10
1327.500000
 20
95.914685
 42
-0.006302
  0
VERTEX
  8
0
 10
1326.788386
 20
94.817447
 42
-0.000262
  0
VERTEX
  8
0
 10
1324.192679
 20
90.927930
 42
-0.000453
  0
VERTEX
  8
0
 10
1321.110261
 20
86.323379
 42
-0.000322
  0
VERTEX
  8
0
 10
1317.645290
 20
81.164685
 42
0.000000
  0
VERTEX
  8
0
 10
1308.790579
 20
68.000000
 42
0.000000
  0
VERTEX
  8
0
 10
1292.395290
 20
68.000000
 42
0.000000
  0
VERTEX
  8
0
 10
1276.000000
 20
68.000000
 42
0.000000
  0
VERTEX
  8
0
 10
1276.000000
 20
148.000000
 42
0.000000
  0
VERTEX
  8
0
 10
1276.000000
 20
228.000000
 42
0.000000
  0
VERTEX
  8
0
 10
1295.987526
 20
228.000000
 42
0.000000
  0
VERTEX
  8
0
 10
1315.975052
 20
228.000000
 42
0.000000
  0
SEQEND
  0
POLYLINE
  8
0
 66
1
 70
1
  0
VERTEX
  8
0
 10
1536.464251
 20
221.477106
 42
-0.015337
  0
VERTEX
  8
0
 10
1539.303267
 20
220.347677
 42
-0.015111
  0
VERTEX
  8
0
 10
1542.082067
 20
219.041099
 42
-0.015161
  0
VERTEX
  8
0
 10
1544.443863
 20
217.750666
 42
-0.054395
  0
VERTEX
  8
0
 10
1545.821311
 20
216.727106
 42
-0.044401
  0
VERTEX
  8
0
 10
1548.799980
 20
213.427395
 42
-0.016171
  0
VERTEX
  8
0
 10
1552.427972
 20
208.272018
 42
-0.016251
  0
VERTEX
  8
0
 10
1555.727802
 20
202.870318
 42
-0.042077
  0
VERTEX
  8
0
 10
1557.636394
 20
198.728245
 42
-0.057094
  0
VERTEX
  8
0
 10
1558.925627
 20
193.310410
 42
-0.014670
  0
VERTEX
  8
0
 10
1559.737617
 20
184.334134
 42
-0.006803
  0
VERTEX
  8
0
 10
1560.175969
 20
175.067707
 42
-0.424108
  0
VERTEX
  8
0
 10
1559.143613
 20
174.000000
 42
0.222140
  0
VERTEX
  8
0
 10
1558.705868
 20
173.795423
 42
0.076756
  0
VERTEX
  8
0
 10
1558.335936
 20
173.182766
 42
0.058370
  0
VERTEX
  8
0
 10
1558.083687
 20
172.283232
 42
0.039218
  0
VERTEX
  8
0
 10
1558.000000
 20
171.217928
 42
-0.053872
  0
VERTEX
  8
0
 10
1557.513921
 20
166.719625
 42
-0.035230
  0
VERTEX
  8
0
 10
1556.042070
 20
161.709036
 42
-0.032115
  0
VERTEX
  8
0
 10
1553.687180
 20
156.440714
 42
-0.026604
  0
VERTEX
  8
0
 10
1550.539169
 20
151.162150
 42
-0.005900
  0
VERTEX
  8
0
 10
1548.594685
 20
148.336591
 42
-0.008044
  0
VERTEX
  8
0
 10
1546.771368
 20
145.839194
 42
-0.005603
  0
VERTEX
  8
0
 10
1545.193829
 20
143.797835
 42
-0.086862
  0
VERTEX
  8
0
 10
1544.535194
 20
143.210335
 42
0.065700
  0
VERTEX
  8
0
 10
1543.925133
 20
142.710616
 42
0.009891
  0
VERTEX
  8
0
 10
1542.864399
 20
141.533661
 42
0.010957
  0
VERTEX
  8
0
 10
1541.663138
 20
140.083543
 42
0.009268
  0
VERTEX
  8
0
 10
1540.455911
 20
138.500000
 42
-0.007168
  0
VERTEX
  8
0
 10
1539.215439
 20
136.858595
 42
-0.006927
  0
VERTEX
  8
0
 10
1537.914433
 20
135.234375
 42
-0.006869
  0
VERTEX
  8
0
 10
1536.729863
 20
133.836381
 42
-0.025106
  0
VERTEX
  8
0
 10
1535.923893
 20
133.000000
 42
0.036579
  0
VERTEX
  8
0
 10
1534.995401
 20
131.991181
 42
0.003780
  0
VERTEX
  8
0
 10
1533.004925
 20
129.443750
 42
0.004688
  0
VERTEX
  8
0
 10
1530.681927
 20
126.364668
 42
0.003731
  0
VERTEX
  8
0
 10
1528.231268
 20
123.000000
 42
-0.003800
  0
VERTEX
  8
0
 10
1525.646610
 20
119.452377
 42
-0.003434
  0
VERTEX
  8
0
 10
1522.920305
 20
115.821875
 42
-0.003439
  0
VERTEX
  8
0
 10
1520.433370
 20
112.603241
 42
-0.010930
  0
VERTEX
  8
0
 10
1518.709519
 20
110.500000
 42
0.009532
  0
VERTEX
  8
0
 10
1517.311110
 20
108.803520
 42
0.008866
  0
VERTEX
  8
0
 10
1515.943436
 20
107.014062
 42
0.008883
  0
VERTEX
  8
0
 10
1514.784264
 20
105.380331
 42
0.029411
  0
VERTEX
  8
0
 10
1514.105912
 20
104.250000
 42
0.000000
  0
VERTEX
  8
0
 10
1512.929632
 20
102.000000
 42
0.000000
  0
VERTEX
  8
0
 10
1534.464816
 20
102.000000
 42
-0.001414
  0
VERTEX
  8
0
 10
1548.296896
 20
101.960890
 42
-0.021741
  0
VERTEX
  8
0
 10
1553.058102
 20
101.726782
 42
-0.081790
  0
VERTEX
  8
0
 10
1555.251262
 20
101.153156
 42
-0.296170
  0
VERTEX
  8
0
 10
1556.000000
 20
100.000000
 42
0.072254
  0
VERTEX
  8
0
 10
1556.126841
 20
99.126841
 42
0.124864
  0
VERTEX
  8
0
 10
1556.500000
 20
98.500000
 42
0.124864
  0
VERTEX
  8
0
 10
1557.126841
 20
98.126841
 42
0.072254
  0
VERTEX
  8
0
 10
1558.000000
 20
98.000000
 42
-0.224251
  0
VERTEX
  8
0
 10
1559.106787
 20
97.477318
 42
-0.134742
  0
VERTEX
  8
0
 10
1559.711538
 20
96.125000
 42
-0.035495
  0
VERTEX
  8
0
 10
1559.956370
 20
93.134523
 42
-0.002682
  0
VERTEX
  8
0
 10
1560.000000
 20
85.000000
 42
0.000000
  0
VERTEX
  8
0
 10
1560.000000
 20
72.000000
 42
0.000000
  0
VERTEX
  8
0
 10
1511.000000
 20
72.000000
 42
0.000000
  0
VERTEX
  8
0
 10
1462.000000
 20
72.000000
 42
0.000000
  0
VERTEX
  8
0
 10
1462.000000
 20
82.940983
 42
-0.008108
  0
VERTEX
  8
0
 10
1462.070259
 20
87.273320
 42
-0.013467
  0
VERTEX
  8
0
 10
1462.286972
 20
90.919570
 42
-0.008383
  0
VERTEX
  8
0
 10
1462.591100
 20
93.859985
 42
-0.228189
  0
VERTEX
  8
0
 10
1463.000000
 20
94.500000
 42
0.118414
  0
VERTEX
  8
0
 10
1463.383862
 20
94.886873
 42
0.048707
  0
VERTEX
  8
0
 10
1463.706250
 20
95.556958
 42
0.044576
  0
VERTEX
  8
0
 10
1463.925999
 20
96.376429
 42
0.043253
  0
VERTEX
  8
0
 10
1464.000000
 20
97.230276
 42
-0.061358
  0
VERTEX
  8
0
 10
1464.115412
 20
98.167222
 42
-0.036286
  0
VERTEX
  8
0
 10
1464.467797
 20
99.238958
 42
-0.035801
  0
VERTEX
  8
0
 10
1464.982757
 20
100.273713
 42
-0.050597
  0
VERTEX
  8
0
 10
1465.592501
 20
101.102213
 42
0.022127
  0
VERTEX
  8
0
 10
1466.319974
 20
101.981278
 42
0.009814
  0
VERTEX
  8
0
 10
1467.204096
 20
103.200407
 42
0.009692
  0
VERTEX
  8
0
 10
1468.091466
 20
104.530219
 42
0.012899
  0
VERTEX
  8
0
 10
1468.842501
 20
105.773942
 42
-0.014040
  0
VERTEX
  8
0
 10
1471.362282
 20
109.925289
 42
-0.025754
  0
VERTEX
  8
0
 10
1473.677021
 20
113.132845
 42
-0.025341
  0
VERTEX
  8
0
 10
1476.334900
 20
116.119142
 42
-0.013116
  0
VERTEX
  8
0
 10
1479.934359
 20
119.585880
 42
0.009040
  0
VERTEX
  8
0
 10
1483.208091
 20
122.687862
 42
0.001278
  0
VERTEX
  8
0
 10
1489.813530
 20
129.210649
 42
0.001457
  0
VERTEX
  8
0
 10
1497.588905
 20
136.973192
 42
0.001240
  0
VERTEX
  8
0
 10
1505.750000
 20
145.209176
 42
0.000000
  0
VERTEX
  8
0
 10
1526.000000
 20
165.746592
 42
0.000000
  0
VERTEX
  8
0
 10
1526.000000
 20
175.585445
 42
0.000000
  0
VERTEX
  8
0
 10
1526.000000
 20
185.424297
 42
0.000000
  0
VERTEX
  8
0
 10
1521.791792
 20
189.712148
 42
0.000000
  0
VERTEX
  8
0
 10
1517.583584
 20
194.000000
 42
0.000000
  0
VERTEX
  8
0
 10
1509.004200
 20
194.000000
 42
0.000000
  0
VERTEX
  8
0
 10
1500.424816
 20
194.000000
 42
0.000000
  0
VERTEX
  8
0
 10
1495.819950
 20
189.250000
 42
0.014508
  0
VERTEX
  8
0
 10
1493.935518
 20
187.189810
 42
0.012620
  0
VERTEX
  8
0
 10
1492.081287
 20
184.927635
 42
0.012793
  0
VERTEX
  8
0
 10
1490.507359
 20
182.795022
 42
0.036112
  0
VERTEX
  8
0
 10
1489.558994
 20
181.205777
 42
-0.076047
  0
VERTEX
  8
0
 10
1487.138432
 20
177.798143
 42
-0.096018
  0
VERTEX
  8
0
 10
1483.975107
 20
175.587629
 42
-0.074777
  0
VERTEX
  8
0
 10
1479.594769
 20
174.379146
 42
-0.029873
  0
VERTEX
  8
0
 10
1473.365010
 20
174.003738
 42
-0.036799
  0
VERTEX
  8
0
 10
1466.497885
 20
174.506662
 42
-0.217229
  0
VERTEX
  8
0
 10
1463.544900
 20
176.418165
 42
-0.131915
  0
VERTEX
  8
0
 10
1462.247247
 20
180.523024
 42
-0.010968
  0
VERTEX
  8
0
 10
1462.000000
 20
191.793372
 42
-0.004023
  0
VERTEX
  8
0
 10
1462.067244
 20
200.151022
 42
-0.040356
  0
VERTEX
  8
0
 10
1462.404272
 20
203.623258
 42
-0.073743
  0
VERTEX
  8
0
 10
1463.265586
 20
206.182451
 42
-0.028296
  0
VERTEX
  8
0
 10
1465.162920
 20
209.432248
 42
-0.030749
  0
VERTEX
  8
0
 10
1466.804528
 20
211.607428
 42
-0.014226
  0
VERTEX
  8
0
 10
1469.184812
 20
214.233033
 42
-0.014031
  0
VERTEX
  8
0
 10
1471.850762
 20
216.859073
 42
-0.018947
  0
VERTEX
  8
0
 10
1474.412920
 20
219.069832
 42
0.000000
  0
VERTEX
  8
0
 10
1480.500000
 20
223.932278
 42
0.000000
  0
VERTEX
  8
0
 10
1505.004332
 20
223.966139
 42
-0.001867
  0
VERTEX
  8
0
 10
1520.544639
 20
223.929591
 42
-0.018219
  0
VERTEX
  8
0
 10
1527.108621
 20
223.650327
 42
-0.039166
  0
VERTEX
  8
0
 10
1531.597967
 20
222.938526
 42
-0.028113
  0
SEQEND
  0
POLYLINE
  8
0
 66
1
 70
1
  0
VERTEX
  8
0
 10
1675.449445
 20
221.391070
 42
-0.001285
  0
VERTEX
  8
0
 10
1677.590787
 20
220.678459
 42
-0.001091
  0
VERTEX
  8
0
 10
1679.848621
 20
219.915142
 42
-0.001100
  0
VERTEX
  8
0
 10
1681.901824
 20
219.210966
 42
-0.003099
  0
VERTEX
  8
0
 10
1683.333093
 20
218.706620
 42
-0.097680
  0
VERTEX
  8
0
 10
1687.910075
 20
215.964714
 42
-0.029095
  0
VERTEX
  8
0
 10
1693.655992
 20
210.134886
 42
-0.028440
  0
VERTEX
  8
0
 10
1699.384849
 20
202.800575
 42
-0.030141
  0
VERTEX
  8
0
 10
1704.124430
 20
195.000000
 42
0.000000
  0
VERTEX
  8
0
 10
1706.500000
 20
190.500000
 42
0.000000
  0
VERTEX
  8
0
 10
1706.500000
 20
148.000000
 42
0.000000
  0
VERTEX
  8
0
 10
1706.500000
 20
105.500000
 42
0.000000
  0
VERTEX
  8
0
 10
1704.124430
 20
101.000000
 42
-0.030141
  0
VERTEX
  8
0
 10
1699.384849
 20
93.199425
 42
-0.028440
  0
VERTEX
  8
0
 10
1693.655992
 20
85.865114
 42
-0.029095
  0
VERTEX
  8
0
 10
1687.910075
 20
80.035286
 42
-0.097680
  0
VERTEX
  8
0
 10
1683.333093
 20
77.293380
 42
-0.010626
  0
VERTEX
  8
0
 10
1674.608204
 20
74.365825
 42
-0.041771
  0
VERTEX
  8
0
 10
1669.074647
 20
73.134281
 42
-0.030180
  0
VERTEX
  8
0
 10
1662.632432
 20
72.649200
 42
-0.003704
  0
VERTEX
  8
0
 10
1648.500000
 20
72.544517
 42
-0.003704
  0
VERTEX
  8
0
 10
1634.367568
 20
72.649200
 42
-0.030180
  0
VERTEX
  8
0
 10
1627.925353
 20
73.134281
 42
-0.041771
  0
VERTEX
  8
0
 10
1622.391796
 20
74.365825
 42
-0.010626
  0
VERTEX
  8
0
 10
1613.666907
 20
77.293380
 42
-0.097680
  0
VERTEX
  8
0
 10
1609.089925
 20
80.035286
 42
-0.029095
  0
VERTEX
  8
0
 10
1603.344008
 20
85.865114
 42
-0.028440
  0
VERTEX
  8
0
 10
1597.615151
 20
93.199425
 42
-0.030141
  0
VERTEX
  8
0
 10
1592.875570
 20
101.000000
 42
0.000000
  0
VERTEX
  8
0
 10
1590.500000
 20
105.500000
 42
0.000000
  0
VERTEX
  8
0
 10
1590.500000
 20
148.000000
 42
0.000000
  0
VERTEX
  8
0
 10
1590.500000
 20
190.500000
 42
0.000000
  0
VERTEX
  8
0
 10
1592.875570
 20
195.000000
 42
-0.030142
  0
VERTEX
  8
0
 10
1597.615869
 20
202.801707
 42
-0.028448
  0
VERTEX
  8
0
 10
1603.345265
 20
210.136370
 42
-0.029101
  0
VERTEX
  8
0
 10
1609.091231
 20
215.965645
 42
-0.097811
  0
VERTEX
  8
0
 10
1613.666907
 20
218.704761
 42
-0.019908
  0
VERTEX
  8
0
 10
1622.756901
 20
221.562457
 42
-0.036929
  0
VERTEX
  8
0
 10
1630.345466
 20
223.029434
 42
-0.028024
  0
VERTEX
  8
0
 10
1639.343189
 20
223.579884
 42
-0.007155
  0
VERTEX
  8
0
 10
1653.949445
 20
223.444893
 42
-0.005300
  0
VERTEX
  8
0
 10
1661.879701
 20
223.173959
 42
-0.012622
  0
VERTEX
  8
0
 10
1667.761865
 20
222.761565
 42
-0.016712
  0
VERTEX
  8
0
 10
1672.201765
 20
222.187156
 42
-0.039172
  0
SEQEND
  0
POLYLINE
  8
0
 66
1
 70
1
  0
VERTEX
  8
0
 10
1775.712148
 20
219.791792
 42
0.000000
  0
VERTEX
  8
0
 10
1780.000000
 20
215.583584
 42
0.000000
  0
VERTEX
  8
0
 10
1780.000000
 20
184.106243
 42
-0.003186
  0
VERTEX
  8
0
 10
1779.830751
 20
157.545472
 42
-0.106428
  0
VERTEX
  8
0
 10
1778.421169
 20
151.381145
 42
-0.261727
  0
VERTEX
  8
0
 10
1774.583478
 20
148.629984
 42
-0.027505
  0
VERTEX
  8
0
 10
1763.140137
 20
148.000000
 42
-0.004059
  0
VERTEX
  8
0
 10
1755.661654
 20
148.060715
 42
-0.032357
  0
VERTEX
  8
0
 10
1752.221953
 20
148.339695
 42
-0.072125
  0
VERTEX
  8
0
 10
1750.091049
 20
148.974706
 42
-0.080313
  0
VERTEX
  8
0
 10
1748.314451
 20
150.174314
 42
0.000000
  0
VERTEX
  8
0
 10
1746.000000
 20
152.348628
 42
0.000000
  0
VERTEX
  8
0
 10
1746.000000
 20
183.886462
 42
0.000000
  0
VERTEX
  8
0
 10
1746.000000
 20
215.424297
 42
0.000000
  0
VERTEX
  8
0
 10
1750.208208
 20
219.712148
 42
0.000000
  0
VERTEX
  8
0
 10
1754.416416
 20
224.000000
 42
0.000000
  0
VERTEX
  8
0
 10
1762.920356
 20
224.000000
 42
0.000000
  0
VERTEX
  8
0
 10
1771.424297
 20
224.000000
 42
0.000000
  0
SEQEND
  0
POLYLINE
  8
0
 66
1
 70
1
  0
VERTEX
  8
0
 10
1898.088676
 20
220.971022
 42
-0.023906
  0
VERTEX
  8
0
 10
1907.878539
 20
217.245251
 42
-0.075958
  0
VERTEX
  8
0
 10
1913.784461
 20
213.517164
 42
-0.074947
  0
VERTEX
  8
0
 10
1918.350069
 20
208.167405
 42
-0.022862
  0
VERTEX
  8
0
 10
1923.570691
 20
198.859245
 42
0.000000
  0
VERTEX
  8
0
 10
1928.000000
 20
190.039964
 42
0.000000
  0
VERTEX
  8
0
 10
1927.923922
 20
179.269982
 42
-0.009696
  0
VERTEX
  8
0
 10
1927.808646
 20
174.913575
 42
-0.010882
  0
VERTEX
  8
0
 10
1927.525352
 20
170.729826
 42
-0.010226
  0
VERTEX
  8
0
 10
1927.134814
 20
167.188079
 42
-0.055923
  0
VERTEX
  8
0
 10
1926.673922
 20
165.320916
 42
-0.053802
  0
VERTEX
  8
0
 10
1925.881742
 20
163.726947
 42
-0.014831
  0
VERTEX
  8
0
 10
1924.302652
 20
161.410826
 42
-0.014804
  0
VERTEX
  8
0
 10
1922.345915
 20
158.877373
 42
-0.014977
  0
VERTEX
  8
0
 10
1920.250000
 20
156.474219
 42
0.015982
  0
VERTEX
  8
0
 10
1918.087326
 20
153.984428
 42
0.025545
  0
VERTEX
  8
0
 10
1916.423076
 20
151.712199
 42
0.028659
  0
VERTEX
  8
0
 10
1915.310116
 20
149.785306
 42
0.117151
  0
VERTEX
  8
0
 10
1915.000000
 20
148.479899
 42
0.129160
  0
VERTEX
  8
0
 10
1915.529229
 20
146.465344
 42
0.013429
  0
VERTEX
  8
0
 10
1918.070467
 20
142.232176
 42
0.016617
  0
VERTEX
  8
0
 10
1920.872038
 20
138.143616
 42
0.068695
  0
VERTEX
  8
0
 10
1922.955401
 20
136.000000
 42
-0.055989
  0
VERTEX
  8
0
 10
1923.316488
 20
135.646813
 42
-0.005867
  0
VERTEX
  8
0
 10
1924.054863
 20
134.720279
 42
-0.007212
  0
VERTEX
  8
0
 10
1924.908146
 20
133.590125
 42
-0.005721
  0
VERTEX
  8
0
 10
1925.798180
 20
132.345630
 42
-0.068726
  0
VERTEX
  8
0
 10
1927.037334
 20
129.919181
 42
-0.057894
  0
VERTEX
  8
0
 10
1927.665345
 20
127.101053
 42
-0.024324
  0
VERTEX
  8
0
 10
1927.917575
 20
122.516848
 42
-0.002595
  0
VERTEX
  8
0
 10
1927.929715
 20
111.845630
 42
-0.003612
  0
VERTEX
  8
0
 10
1927.853448
 20
105.082866
 42
-0.005262
  0
VERTEX
  8
0
 10
1927.680410
 20
99.123172
 42
-0.002732
  0
VERTEX
  8
0
 10
1927.453581
 20
94.087772
 42
-0.087631
  0
VERTEX
  8
0
 10
1927.179715
 20
92.892829
 42
-0.070266
  0
VERTEX
  8
0
 10
1924.595893
 20
88.586400
 42
-0.018457
  0
VERTEX
  8
0
 10
1919.292097
 20
82.510150
 42
-0.019038
  0
VERTEX
  8
0
 10
1913.485287
 20
76.786458
 42
-0.057815
  0
VERTEX
  8
0
 10
1908.994763
 20
73.549239
 42
-0.028217
  0
VERTEX
  8
0
 10
1902.452286
 20
70.367086
 42
-0.058695
  0
VERTEX
  8
0
 10
1897.006789
 20
68.806983
 42
-0.035410
  0
VERTEX
  8
0
 10
1889.818008
 20
68.151179
 42
-0.005046
  0
VERTEX
  8
0
 10
1875.000000
 20
68.001629
 42
-0.005046
  0
VERTEX
  8
0
 10
1860.181992
 20
68.151179
 42
-0.035410
  0
VERTEX
  8
0
 10
1852.993211
 20
68.806983
 42
-0.058695
  0
VERTEX
  8
0
 10
1847.547714
 20
70.367086
 42
-0.028217
  0
VERTEX
  8
0
 10
1841.005237
 20
73.549239
 42
-0.057815
  0
VERTEX
  8
0
 10
1836.514713
 20
76.786458
 42
-0.019038
  0
VERTEX
  8
0
 10
1830.707903
 20
82.510150
 42
-0.018457
  0
VERTEX
  8
0
 10
1825.404107
 20
88.586400
 42
-0.070266
  0
VERTEX
  8
0
 10
1822.820285
 20
92.892829
 42
-0.087631
  0
VERTEX
  8
0
 10
1822.546419
 20
94.087772
 42
-0.002732
  0
VERTEX
  8
0
 10
1822.319590
 20
99.123172
 42
-0.005262
  0
VERTEX
  8
0
 10
1822.146552
 20
105.082866
 42
-0.003612
  0
VERTEX
  8
0
 10
1822.070285
 20
111.845630
 42
-0.002595
  0
VERTEX
  8
0
 10
1822.082425
 20
122.516848
 42
-0.024324
  0
VERTEX
  8
0
 10
1822.334655
 20
127.101053
 42
-0.057894
  0
VERTEX
  8
0
 10
1822.962666
 20
129.919181
 42
-0.068726
  0
VERTEX
  8
0
 10
1824.201820
 20
132.345630
 42
-0.005721
  0
VERTEX
  8
0
 10
1825.091854
 20
133.590125
 42
-0.007212
  0
VERTEX
  8
0
 10
1825.945137
 20
134.720279
 42
-0.005867
  0
VERTEX
  8
0
 10
1826.683512
 20
135.646813
 42
-0.055989
  0
VERTEX
  8
0
 10
1827.044599
 20
136.000000
 42
0.068695
  0
VERTEX
  8
0
 10
1829.127962
 20
138.143616
 42
0.016617
  0
VERTEX
  8
0
 10
1831.929533
 20
142.232176
 42
0.013429
  0
VERTEX
  8
0
 10
1834.470771
 20
146.465344
 42
0.129160
  0
VERTEX
  8
0
 10
1835.000000
 20
148.479899
 42
0.117151
  0
VERTEX
  8
0
 10
1834.689884
 20
149.785306
 42
0.028659
  0
VERTEX
  8
0
 10
1833.576924
 20
151.712199
 42
0.025545
  0
VERTEX
  8
0
 10
1831.912674
 20
153.984428
 42
0.015982
  0
VERTEX
  8
0
 10
1829.750000
 20
156.474219
 42
-0.014977
  0
VERTEX
  8
0
 10
1827.654085
 20
158.877373
 42
-0.014804
  0
VERTEX
  8
0
 10
1825.697348
 20
161.410826
 42
-0.014831
  0
VERTEX
  8
0
 10
1824.118258
 20
163.726947
 42
-0.053802
  0
VERTEX
  8
0
 10
1823.326078
 20
165.320916
 42
-0.055928
  0
VERTEX
  8
0
 10
1822.865184
 20
167.188171
 42
-0.010224
  0
VERTEX
  8
0
 10
1822.474648
 20
170.730477
 42
-0.010881
  0
VERTEX
  8
0
 10
1822.191354
 20
174.914942
 42
-0.009694
  0
VERTEX
  8
0
 10
1822.076078
 20
179.272197
 42
-0.007370
  0
VERTEX
  8
0
 10
1822.129372
 20
186.213989
 42
-0.046708
  0
VERTEX
  8
0
 10
1822.536832
 20
189.717955
 42
-0.052694
  0
VERTEX
  8
0
 10
1823.575337
 20
192.911478
 42
-0.010850
  0
VERTEX
  8
0
 10
1826.108191
 20
198.272197
 42
-0.021283
  0
VERTEX
  8
0
 10
1831.362129
 20
207.761581
 42
-0.072361
  0
VERTEX
  8
0
 10
1835.865320
 20
213.188049
 42
-0.076289
  0
VERTEX
  8
0
 10
1841.597741
 20
216.954902
 42
-0.025401
  0
VERTEX
  8
0
 10
1850.959194
 20
220.675388
 42
-0.012207
  0
VERTEX
  8
0
 10
1856.940190
 20
222.545742
 42
-0.035271
  0
VERTEX
  8
0
 10
1861.184845
 20
223.442274
 42
-0.028091
  0
VERTEX
  8
0
 10
1866.008168
 20
223.836123
 42
-0.005591
  0
VERTEX
  8
0
 10
1874.659823
 20
223.958335
 42
-0.005603
  0
VERTEX
  8
0
 10
1883.211276
 20
223.887677
 42
-0.026845
  0
VERTEX
  8
0
 10
1888.073297
 20
223.531411
 42
-0.034224
  0
VERTEX
  8
0
 10
1892.313608
 20
222.692836
 42
-0.013046
  0
SEQEND
  0
POLYLINE
  8
0
 66
1
 70
1
  0
VERTEX
  8
0
 10
1775.712148
 20
101.791792
 42
0.000000
  0
VERTEX
  8
0
 10
1780.000000
 20
97.583584
 42
0.000000
  0
VERTEX
  8
0
 10
1780.000000
 20
89.000000
 42
0.000000
  0
VERTEX
  8
0
 10
1780.000000
 20
80.416416
 42
0.000000
  0
VERTEX
  8
0
 10
1775.712148
 20
76.208208
 42
0.000000
  0
VERTEX
  8
0
 10
1771.424297
 20
72.000000
 42
0.000000
  0
VERTEX
  8
0
 10
1763.000000
 20
72.000000
 42
0.000000
  0
VERTEX
  8
0
 10
1754.575703
 20
72.000000
 42
0.000000
  0
VERTEX
  8
0
 10
1750.287852
 20
76.208208
 42
0.000000
  0
VERTEX
  8
0
 10
1746.000000
 20
80.416416
 42
0.000000
  0
VERTEX
  8
0
 10
1746.000000
 20
88.920356
 42
0.000000
  0
VERTEX
  8
0
 10
1746.000000
 20
97.424297
 42
0.000000
  0
VERTEX
  8
0
 10
1750.208208
 20
101.712148
 42
0.000000
  0
VERTEX
  8
0
 10
1754.416416
 20
106.000000
 42
0.000000
  0
VERTEX
  8
0
 10
1762.920356
 20
106.000000
 42
0.000000
  0
VERTEX
  8
0
 10
1771.424297
 20
106.000000
 42
0.000000
  0
SEQEND
  0
POLYLINE
  8
0
 66
1
 70
1
  0
VERTEX
  8
0
 10
265.468623
 20
168.949231
 42
0.062794
  0
VERTEX
  8
0
 10
265.083951
 20
168.106365
 42
0.000777
  0
VERTEX
  8
0
 10
263.317783
 20
162.420477
 42
0.002287
  0
VERTEX
  8
0
 10
261.313340
 20
155.825099
 42
0.001494
  0
VERTEX
  8
0
 10
259.058552
 20
148.199231
 42
0.000000
  0
VERTEX
  8
0
 10
253.297892
 20
128.500000
 42
0.000000
  0
VERTEX
  8
0
 10
261.648946
 20
128.211067
 42
0.005447
  0
VERTEX
  8
0
 10
265.450648
 20
128.120988
 42
0.003199
  0
VERTEX
  8
0
 10
270.000000
 20
128.091882
 42
0.003199
  0
VERTEX
  8
0
 10
274.549352
 20
128.120988
 42
0.005447
  0
VERTEX
  8
0
 10
278.351054
 20
128.211067
 42
0.000000
  0
VERTEX
  8
0
 10
286.702108
 20
128.500000
 42
0.000000
  0
VERTEX
  8
0
 10
280.941448
 20
148.199231
 42
0.001494
  0
VERTEX
  8
0
 10
278.686660
 20
155.825099
 42
0.002287
  0
VERTEX
  8
0
 10
276.682217
 20
162.420477
 42
0.000777
  0
VERTEX
  8
0
 10
274.916049
 20
168.106365
 42
0.062794
  0
VERTEX
  8
0
 10
274.531377
 20
168.949231
 42
0.165514
  0
VERTEX
  8
0
 10
274.037506
 20
169.356151
 42
0.033326
  0
VERTEX
  8
0
 10
272.932403
 20
169.691337
 42
0.031881
  0
VERTEX
  8
0
 10
271.533858
 20
169.922950
 42
0.025101
  0
VERTEX
  8
0
 10
270.000000
 20
170.000000
 42
0.025101
  0
VERTEX
  8
0
 10
268.466142
 20
169.922950
 42
0.031881
  0
VERTEX
  8
0
 10
267.067597
 20
169.691337
 42
0.033326
  0
VERTEX
  8
0
 10
265.962494
 20
169.356151
 42
0.165514
  0
SEQEND
  0
POLYLINE
  8
0
 66
1
 70
1
  0
VERTEX
  8
0
 10
398.000000
 20
178.000000
 42
0.000000
  0
VERTEX
  8
0
 10
398.000000
 20
166.000000
 42
0.000000
  0
VERTEX
  8
0
 10
410.825686
 20
166.000000
 42
0.003578
  0
VERTEX
  8
0
 10
418.751548
 20
166.056722
 42
0.034708
  0
VERTEX
  8
0
 10
422.098178
 20
166.337496
 42
0.084177
  0
VERTEX
  8
0
 10
424.119187
 20
167.009588
 42
0.082084
  0
VERTEX
  8
0
 10
425.825686
 20
168.314451
 42
0.062877
  0
VERTEX
  8
0
 10
426.953060
 20
169.865231
 42
0.071429
  0
VERTEX
  8
0
 10
427.600598
 20
171.583504
 42
0.044293
  0
VERTEX
  8
0
 10
427.915871
 20
174.009113
 42
0.010182
  0
VERTEX
  8
0
 10
428.000000
 20
178.140137
 42
0.009450
  0
VERTEX
  8
0
 10
427.919413
 20
182.403737
 42
0.049230
  0
VERTEX
  8
0
 10
427.600598
 20
184.730387
 42
0.083524
  0
VERTEX
  8
0
 10
426.918153
 20
186.339040
 42
0.062262
  0
VERTEX
  8
0
 10
425.685549
 20
187.825686
 42
0.080898
  0
VERTEX
  8
0
 10
423.902219
 20
189.026827
 42
0.071961
  0
VERTEX
  8
0
 10
421.756692
 20
189.661538
 42
0.032034
  0
VERTEX
  8
0
 10
418.282319
 20
189.939754
 42
0.003965
  0
VERTEX
  8
0
 10
410.685549
 20
190.000000
 42
0.000000
  0
VERTEX
  8
0
 10
398.000000
 20
190.000000
 42
0.000000
  0
SEQEND
  0
POLYLINE
  8
0
 66
1
 70
1
  0
VERTEX
  8
0
 10
398.000000
 20
117.000000
 42
0.000000
  0
VERTEX
  8
0
 10
398.000000
 20
106.000000
 42
0.000000
  0
VERTEX
  8
0
 10
412.825686
 20
106.000000
 42
0.002812
  0
VERTEX
  8
0
 10
422.148814
 20
106.052436
 42
0.031026
  0
VERTEX
  8
0
 10
425.871056
 20
106.325692
 42
0.081630
  0
VERTEX
  8
0
 10
428.049840
 20
106.995402
 42
0.089109
  0
VERTEX
  8
0
 10
429.825686
 20
108.314451
 42
0.062925
  0
VERTEX
  8
0
 10
430.953392
 20
109.865997
 42
0.071456
  0
VERTEX
  8
0
 10
431.600872
 20
111.585383
 42
0.044254
  0
VERTEX
  8
0
 10
431.915980
 20
114.013874
 42
0.010146
  0
VERTEX
  8
0
 10
432.000000
 20
118.153936
 42
0.006876
  0
VERTEX
  8
0
 10
431.936334
 20
122.783425
 42
0.064527
  0
VERTEX
  8
0
 10
431.626826
 20
124.746490
 42
0.141070
  0
VERTEX
  8
0
 10
430.891865
 20
125.904456
 42
0.074496
  0
VERTEX
  8
0
 10
429.452947
 20
126.839485
 42
0.079749
  0
VERTEX
  8
0
 10
427.661469
 20
127.332139
 42
0.010261
  0
VERTEX
  8
0
 10
423.683171
 20
127.685868
 42
0.010795
  0
VERTEX
  8
0
 10
418.587097
 20
127.923371
 42
0.006246
  0
VERTEX
  8
0
 10
412.452947
 20
128.000000
 42
0.000000
  0
VERTEX
  8
0
 10
398.000000
 20
128.000000
 42
0.000000
  0
SEQEND
  0
POLYLINE
  8
0
 66
1
 70
1
  0
VERTEX
  8
0
 10
549.468623
 20
168.949231
 42
0.062794
  0
VERTEX
  8
0
 10
549.083951
 20
168.106365
 42
0.000777
  0
VERTEX
  8
0
 10
547.317783
 20
162.420477
 42
0.002287
  0
VERTEX
  8
0
 10
545.313340
 20
155.825099
 42
0.001494
  0
VERTEX
  8
0
 10
543.058552
 20
148.199231
 42
0.000000
  0
VERTEX
  8
0
 10
537.297892
 20
128.500000
 42
0.000000
  0
VERTEX
  8
0
 10
545.648946
 20
128.211067
 42
0.005447
  0
VERTEX
  8
0
 10
549.450648
 20
128.120988
 42
0.003199
  0
VERTEX
  8
0
 10
554.000000
 20
128.091882
 42
0.003199
  0
VERTEX
  8
0
 10
558.549352
 20
128.120988
 42
0.005447
  0
VERTEX
  8
0
 10
562.351054
 20
128.211067
 42
0.000000
  0
VERTEX
  8
0
 10
570.702108
 20
128.500000
 42
0.000000
  0
VERTEX
  8
0
 10
564.941448
 20
148.199231
 42
0.001494
  0
VERTEX
  8
0
 10
562.686660
 20
155.825099
 42
0.002287
  0
VERTEX
  8
0
 10
560.682217
 20
162.420477
 42
0.000777
  0
VERTEX
  8
0
 10
558.916049
 20
168.106365
 42
0.062794
  0
VERTEX
  8
0
 10
558.531377
 20
168.949231
 42
0.165514
  0
VERTEX
  8
0
 10
558.037506
 20
169.356151
 42
0.033326
  0
VERTEX
  8
0
 10
556.932403
 20
169.691337
 42
0.031881
  0
VERTEX
  8
0
 10
555.533858
 20
169.922950
 42
0.025101
  0
VERTEX
  8
0
 10
554.000000
 20
170.000000
 42
0.025101
  0
VERTEX
  8
0
 10
552.466142
 20
169.922950
 42
0.031881
  0
VERTEX
  8
0
 10
551.067597
 20
169.691337
 42
0.033326
  0
VERTEX
  8
0
 10
549.962494
 20
169.356151
 42
0.165514
  0
SEQEND
  0
POLYLINE
  8
0
 66
1
 70
1
  0
VERTEX
  8
0
 10
838.000000
 20
125.000000
 42
0.000000
  0
VERTEX
  8
0
 10
838.000000
 20
110.000000
 42
0.000000
  0
VERTEX
  8
0
 10
850.250000
 20
110.001221
 42
0.004158
  0
VERTEX
  8
0
 10
857.748251
 20
110.064329
 42
0.035423
  0
VERTEX
  8
0
 10
861.097461
 20
110.358303
 42
0.076340
  0
VERTEX
  8
0
 10
863.260253
 20
111.052897
 42
0.061868
  0
VERTEX
  8
0
 10
865.291768
 20
112.403461
 42
0.117748
  0
VERTEX
  8
0
 10
868.300898
 20
116.564656
 42
0.065326
  0
VERTEX
  8
0
 10
869.927563
 20
122.649899
 42
0.066604
  0
VERTEX
  8
0
 10
869.913659
 20
128.770193
 42
0.145812
  0
VERTEX
  8
0
 10
868.000000
 20
133.000000
 42
-0.012543
  0
VERTEX
  8
0
 10
867.234034
 20
133.929267
 42
-0.016628
  0
VERTEX
  8
0
 10
866.587500
 20
134.814095
 42
-0.013996
  0
VERTEX
  8
0
 10
866.101132
 20
135.573257
 42
-0.136283
  0
VERTEX
  8
0
 10
866.000000
 20
135.937402
 42
0.207435
  0
VERTEX
  8
0
 10
865.855616
 20
136.270448
 42
0.018250
  0
VERTEX
  8
0
 10
865.146864
 20
136.887276
 42
0.021502
  0
VERTEX
  8
0
 10
864.208308
 20
137.581227
 42
0.015029
  0
VERTEX
  8
0
 10
863.095708
 20
138.284392
 42
0.066240
  0
VERTEX
  8
0
 10
861.099504
 20
139.131380
 42
0.036780
  0
VERTEX
  8
0
 10
858.500752
 20
139.645908
 42
0.023651
  0
VERTEX
  8
0
 10
854.810871
 20
139.921842
 42
0.006837
  0
VERTEX
  8
0
 10
849.095708
 20
140.000000
 42
0.000000
  0
VERTEX
  8
0
 10
838.000000
 20
140.000000
 42
0.000000
  0
SEQEND
  0
POLYLINE
  8
0
 66
1
 70
1
  0
VERTEX
  8
0
 10
1124.000000
 20
125.000000
 42
0.000000
  0
VERTEX
  8
0
 10
1124.000000
 20
110.000000
 42
0.000000
  0
VERTEX
  8
0
 10
1136.250000
 20
110.001221
 42
0.004158
  0
VERTEX
  8
0
 10
1143.748251
 20
110.064329
 42
0.035423
  0
VERTEX
  8
0
 10
1147.097461
 20
110.358303
 42
0.076340
  0
VERTEX
  8
0
 10
1149.260253
 20
111.052897
 42
0.061868
  0
VERTEX
  8
0
 10
1151.291768
 20
112.403461
 42
0.117748
  0
VERTEX
  8
0
 10
1154.300898
 20
116.564656
 42
0.065326
  0
VERTEX
  8
0
 10
1155.927563
 20
122.649899
 42
0.066604
  0
VERTEX
  8
0
 10
1155.913659
 20
128.770193
 42
0.145812
  0
VERTEX
  8
0
 10
1154.000000
 20
133.000000
 42
-0.012543
  0
VERTEX
  8
0
 10
1153.234034
 20
133.929267
 42
-0.016628
  0
VERTEX
  8
0
 10
1152.587500
 20
134.814095
 42
-0.013996
  0
VERTEX
  8
0
 10
1152.101132
 20
135.573257
 42
-0.136283
  0
VERTEX
  8
0
 10
1152.000000
 20
135.937402
 42
0.207435
  0
VERTEX
  8
0
 10
1151.855616
 20
136.270448
 42
0.018250
  0
VERTEX
  8
0
 10
1151.146864
 20
136.887276
 42
0.021502
  0
VERTEX
  8
0
 10
1150.208308
 20
137.581227
 42
0.015029
  0
VERTEX
  8
0
 10
1149.095708
 20
138.284392
 42
0.066240
  0
VERTEX
  8
0
 10
1147.099504
 20
139.131380
 42
0.036780
  0
VERTEX
  8
0
 10
1144.500752
 20
139.645908
 42
0.023651
  0
VERTEX
  8
0
 10
1140.810871
 20
139.921842
 42
0.006837
  0
VERTEX
  8
0
 10
1135.095708
 20
140.000000
 42
0.000000
  0
VERTEX
  8
0
 10
1124.000000
 20
140.000000
 42
0.000000
  0
SEQEND
  0
POLYLINE
  8
0
 66
1
 70
1
  0
VERTEX
  8
0
 10
1643.500000
 20
193.227978
 42
0.036523
  0
VERTEX
  8
0
 10
1641.002698
 20
192.882236
 42
0.021727
  0
VERTEX
  8
0
 10
1638.094946
 20
192.127267
 42
0.020426
  0
VERTEX
  8
0
 10
1635.018546
 20
191.044828
 42
0.019652
  0
VERTEX
  8
0
 10
1632.000000
 20
189.702367
 42
0.016363
  0
VERTEX
  8
0
 10
1628.205089
 20
187.675810
 42
0.061646
  0
VERTEX
  8
0
 10
1626.056753
 20
186.054974
 42
0.064985
  0
VERTEX
  8
0
 10
1624.425933
 20
184.002950
 42
0.019525
  0
VERTEX
  8
0
 10
1622.500000
 20
180.500000
 42
0.000000
  0
VERTEX
  8
0
 10
1619.500000
 20
174.500000
 42
0.000000
  0
VERTEX
  8
0
 10
1619.500000
 20
148.000000
 42
0.000000
  0
VERTEX
  8
0
 10
1619.500000
 20
121.500000
 42
0.000000
  0
VERTEX
  8
0
 10
1622.500000
 20
115.500000
 42
0.019791
  0
VERTEX
  8
0
 10
1624.454270
 20
111.949993
 42
0.067691
  0
VERTEX
  8
0
 10
1626.103478
 20
109.902113
 42
0.061404
  0
VERTEX
  8
0
 10
1628.322616
 20
108.267093
 42
0.014345
  0
VERTEX
  8
0
 10
1632.422456
 20
106.113636
 42
0.015406
  0
VERTEX
  8
0
 10
1636.666208
 20
104.197340
 42
0.046470
  0
VERTEX
  8
0
 10
1639.695333
 20
103.258778
 42
0.041495
  0
VERTEX
  8
0
 10
1643.025990
 20
102.841446
 42
0.010428
  0
VERTEX
  8
0
 10
1648.500000
 20
102.727273
 42
0.010428
  0
VERTEX
  8
0
 10
1653.974010
 20
102.841446
 42
0.041495
  0
VERTEX
  8
0
 10
1657.304667
 20
103.258778
 42
0.046470
  0
VERTEX
  8
0
 10
1660.333792
 20
104.197340
 42
0.015406
  0
VERTEX
  8
0
 10
1664.577544
 20
106.113636
 42
0.014345
  0
VERTEX
  8
0
 10
1668.677384
 20
108.267093
 42
0.061404
  0
VERTEX
  8
0
 10
1670.896522
 20
109.902113
 42
0.067691
  0
VERTEX
  8
0
 10
1672.545730
 20
111.949993
 42
0.019791
  0
VERTEX
  8
0
 10
1674.500000
 20
115.500000
 42
0.000000
  0
VERTEX
  8
0
 10
1677.500000
 20
121.500000
 42
0.000000
  0
VERTEX
  8
0
 10
1677.500000
 20
148.000000
 42
0.000000
  0
VERTEX
  8
0
 10
1677.500000
 20
174.500000
 42
0.000000
  0
VERTEX
  8
0
 10
1674.500000
 20
180.500000
 42
0.019252
  0
VERTEX
  8
0
 10
1672.568690
 20
184.017276
 42
0.066268
  0
VERTEX
  8
0
 10
1670.949586
 20
186.048443
 42
0.063016
  0
VERTEX
  8
0
 10
1668.813063
 20
187.637845
 42
0.016285
  0
VERTEX
  8
0
 10
1665.000000
 20
189.628616
 42
0.032351
  0
VERTEX
  8
0
 10
1660.037384
 20
191.633325
 42
0.038360
  0
VERTEX
  8
0
 10
1655.130111
 20
192.847519
 42
0.035504
  0
VERTEX
  8
0
 10
1649.789924
 20
193.355809
 42
0.022123
  0
SEQEND
  0
POLYLINE
  8
0
 66
1
 70
1
  0
VERTEX
  8
0
 10
1866.747969
 20
193.634592
 42
0.105956
  0
VERTEX
  8
0
 10
1857.474882
 20
187.712668
 42
0.167185
  0
VERTEX
  8
0
 10
1853.324311
 20
179.336015
 42
0.175989
  0
VERTEX
  8
0
 10
1855.296906
 20
170.501620
 42
0.118365
  0
VERTEX
  8
0
 10
1862.815347
 20
163.253858
 42
0.026476
  0
VERTEX
  8
0
 10
1865.614692
 20
161.801839
 42
0.050863
  0
VERTEX
  8
0
 10
1868.009069
 20
160.997950
 42
0.042289
  0
VERTEX
  8
0
 10
1870.793420
 20
160.611966
 42
0.013306
  0
VERTEX
  8
0
 10
1875.000000
 20
160.500000
 42
0.013306
  0
VERTEX
  8
0
 10
1879.206580
 20
160.611966
 42
0.042289
  0
VERTEX
  8
0
 10
1881.990931
 20
160.997950
 42
0.050863
  0
VERTEX
  8
0
 10
1884.385308
 20
161.801839
 42
0.026476
  0
VERTEX
  8
0
 10
1887.184653
 20
163.253858
 42
0.042036
  0
VERTEX
  8
0
 10
1891.447538
 20
166.268032
 42
0.073184
  0
VERTEX
  8
0
 10
1894.314510
 20
169.502701
 42
0.081036
  0
VERTEX
  8
0
 10
1895.944558
 20
173.178629
 42
0.064004
  0
VERTEX
  8
0
 10
1896.500000
 20
177.500000
 42
0.063623
  0
VERTEX
  8
0
 10
1895.951458
 20
181.793455
 42
0.079862
  0
VERTEX
  8
0
 10
1894.341398
 20
185.462376
 42
0.073119
  0
VERTEX
  8
0
 10
1891.530400
 20
188.674515
 42
0.043986
  0
VERTEX
  8
0
 10
1887.394850
 20
191.614490
 42
0.064753
  0
VERTEX
  8
0
 10
1882.781367
 20
193.569197
 42
0.043504
  0
VERTEX
  8
0
 10
1877.146088
 20
194.620774
 42
0.043777
  0
VERTEX
  8
0
 10
1871.471675
 20
194.677698
 42
0.070049
  0
SEQEND
  0
POLYLINE
  8
0
 66
1
 70
1
  0
VERTEX
  8
0
 10
1866.747969
 20
129.634592
 42
0.105956
  0
VERTEX
  8
0
 10
1857.474882
 20
123.712668
 42
0.167185
  0
VERTEX
  8
0
 10
1853.324311
 20
115.336015
 42
0.175989
  0
VERTEX
  8
0
 10
1855.296906
 20
106.501620
 42
0.118365
  0
VERTEX
  8
0
 10
1862.815347
 20
99.253858
 42
0.026476
  0
VERTEX
  8
0
 10
1865.614692
 20
97.801839
 42
0.050863
  0
VERTEX
  8
0
 10
1868.009069
 20
96.997950
 42
0.042289
  0
VERTEX
  8
0
 10
1870.793420
 20
96.611966
 42
0.013306
  0
VERTEX
  8
0
 10
1875.000000
 20
96.500000
 42
0.013306
  0
VERTEX
  8
0
 10
1879.206580
 20
96.611966
 42
0.042289
  0
VERTEX
  8
0
 10
1881.990931
 20
96.997950
 42
0.050863
  0
VERTEX
  8
0
 10
1884.385308
 20
97.801839
 42
0.026476
  0
VERTEX
  8
0
 10
1887.184653
 20
99.253858
 42
0.042036
  0
VERTEX
  8
0
 10
1891.447538
 20
102.268032
 42
0.073184
  0
VERTEX
  8
0
 10
1894.314510
 20
105.502701
 42
0.081036
  0
VERTEX
  8
0
 10
1895.944558
 20
109.178629
 42
0.064004
  0
VERTEX
  8
0
 10
1896.500000
 20
113.500000
 42
0.063623
  0
VERTEX
  8
0
 10
1895.951458
 20
117.793455
 42
0.079862
  0
VERTEX
  8
0
 10
1894.341398
 20
121.462376
 42
0.073119
  0
VERTEX
  8
0
 10
1891.530400
 20
124.674515
 42
0.043986
  0
VERTEX
  8
0
 10
1887.394850
 20
127.614490
 42
0.064753
  0
VERTEX
  8
0
 10
1882.781367
 20
129.569197
 42
0.043504
  0
VERTEX
  8
0
 10
1877.146088
 20
130.620774
 42
0.043777
  0
VERTEX
  8
0
 10
1871.471675
 20
130.677698
 42
0.070049
  0
SEQEND
  0
ENDSEC
  0
EOF
